HIERARCHY
ROOT hip
{
  OFFSET 0.00112043 5.09927 -9.65472
  CHANNELS 6 Xposition Yposition Zposition Zrotation Xrotation Yrotation
  JOINT abdomen
  {
    OFFSET 0 -1.186 -1.5018
    CHANNELS 3 Zrotation Xrotation Yrotation
    JOINT abdomen2
    {
      OFFSET 0 9.964 0.2134
      CHANNELS 3 Zrotation Xrotation Yrotation
      JOINT chest
      {
        OFFSET 0 13.134 -3.2573
        CHANNELS 3 Zrotation Xrotation Yrotation
        JOINT neck
        {
          OFFSET 0 20.686 -1.6905
          CHANNELS 3 Zrotation Xrotation Yrotation
          JOINT head
          {
            OFFSET 0 7.238 -0.1237
            CHANNELS 3 Zrotation Xrotation Yrotation
            End Site
            {
              OFFSET 0 0 0
            }
          }
        }
        JOINT lCollar
        {
          OFFSET 1.7069 20.075 5.0056
          CHANNELS 3 Zrotation Xrotation Yrotation
          JOINT lShldr
          {
            OFFSET 13.6458 -0.047 -4.849
            CHANNELS 3 Zrotation Xrotation Yrotation
            JOINT lForeArm
            {
              OFFSET 28.3255 -0.9759 2.2888
              CHANNELS 3 Zrotation Xrotation Yrotation
              JOINT lHand
              {
                OFFSET 22.1583 -0.53 10.8316
                CHANNELS 3 Zrotation Xrotation Yrotation
                JOINT lThumb1
                {
                  OFFSET 0.786 0.112 2.5817
                  CHANNELS 3 Zrotation Xrotation Yrotation
                  JOINT lThumb2
                  {
                    OFFSET 0.3601 -0.878 4.2331
                    CHANNELS 3 Zrotation Xrotation Yrotation
                    JOINT lThumb2_End
                    {
                      OFFSET 1.8127 -1.216 2.2227
                      CHANNELS 3 Zrotation Xrotation Yrotation
                      End Site
                      {
                        OFFSET 0.0181 -0.0122 0.0222
                      }
                    }
                  }
                }
                JOINT lCarpal1
                {
                  OFFSET 0.9571 1.114 1.7695
                  CHANNELS 3 Zrotation Xrotation Yrotation
                  JOINT lIndex1
                  {
                    OFFSET 4.1246 0.487 4.1451
                    CHANNELS 3 Zrotation Xrotation Yrotation
                    JOINT lIndex2
                    {
                      OFFSET 3.4052 -1.454 2.7682
                      CHANNELS 3 Zrotation Xrotation Yrotation
                      JOINT lIndex2_End
                      {
                        OFFSET 1.4531 -1.795 1.2713
                        CHANNELS 3 Zrotation Xrotation Yrotation
                        End Site
                        {
                          OFFSET 0.0145 -0.0179 0.0127
                        }
                      }
                    }
                  }
                  JOINT lMid1
                  {
                    OFFSET 5.6954 0.21 2.1184
                    CHANNELS 3 Zrotation Xrotation Yrotation
                    JOINT lMid2
                    {
                      OFFSET 3.9766 -1.54 2.3863
                      CHANNELS 3 Zrotation Xrotation Yrotation
                      JOINT lMid2_End
                      {
                        OFFSET 1.4042 -1.926 1.125
                        CHANNELS 3 Zrotation Xrotation Yrotation
                        End Site
                        {
                          OFFSET 0.014 -0.0193 0.0113
                        }
                      }
                    }
                  }
                }
                JOINT lCarpal2
                {
                  OFFSET 2.0956 0.66 -0.3894
                  CHANNELS 3 Zrotation Xrotation Yrotation
                  JOINT lRing1
                  {
                    OFFSET 5.0395 -0.09 2.4971
                    CHANNELS 3 Zrotation Xrotation Yrotation
                    JOINT lRing2
                    {
                      OFFSET 3.7921 -1.552 1.4806
                      CHANNELS 3 Zrotation Xrotation Yrotation
                      JOINT lRing2_End
                      {
                        OFFSET 1.4655 -1.808 0.9609
                        CHANNELS 3 Zrotation Xrotation Yrotation
                        End Site
                        {
                          OFFSET 0.0147 -0.0181 0.0096
                        }
                      }
                    }
                  }
                  JOINT lPinky1
                  {
                    OFFSET 4.9141 -1.269 0.3591
                    CHANNELS 3 Zrotation Xrotation Yrotation
                    JOINT lPinky2
                    {
                      OFFSET 3.1477 -1.685 0.8462
                      CHANNELS 3 Zrotation Xrotation Yrotation
                      JOINT lPinky2_End
                      {
                        OFFSET 0.8055 -1.585 0.7955
                        CHANNELS 3 Zrotation Xrotation Yrotation
                        End Site
                        {
                          OFFSET 0.0081 -0.0158 0.008
                        }
                      }
                    }
                  }
                }
              }
            }
          }
        }
        JOINT rCollar
        {
          OFFSET -1.7069 20.075 5.0056
          CHANNELS 3 Zrotation Xrotation Yrotation
          JOINT rShldr
          {
            OFFSET -13.6458 -0.047 -4.849
            CHANNELS 3 Zrotation Xrotation Yrotation
            JOINT rForeArm
            {
              OFFSET -28.3255 -0.9759 2.2888
              CHANNELS 3 Zrotation Xrotation Yrotation
              JOINT rHand
              {
                OFFSET -22.1583 -0.53 10.8316
                CHANNELS 3 Zrotation Xrotation Yrotation
                JOINT rThumb1
                {
                  OFFSET -0.786 0.112 2.5817
                  CHANNELS 3 Zrotation Xrotation Yrotation
                  JOINT rThumb2
                  {
                    OFFSET -0.3601 -0.878 4.2331
                    CHANNELS 3 Zrotation Xrotation Yrotation
                    JOINT rThumb2_End
                    {
                      OFFSET -1.8127 -1.216 2.2227
                      CHANNELS 3 Zrotation Xrotation Yrotation
                      End Site
                      {
                        OFFSET -0.0181 -0.0122 0.0222
                      }
                    }
                  }
                }
                JOINT rCarpal1
                {
                  OFFSET -0.9571 1.114 1.7695
                  CHANNELS 3 Zrotation Xrotation Yrotation
                  JOINT rIndex1
                  {
                    OFFSET -4.1246 0.487 4.1451
                    CHANNELS 3 Zrotation Xrotation Yrotation
                    JOINT rIndex2
                    {
                      OFFSET -3.4052 -1.454 2.7682
                      CHANNELS 3 Zrotation Xrotation Yrotation
                      JOINT rIndex2_End
                      {
                        OFFSET -1.4531 -1.795 1.2713
                        CHANNELS 3 Zrotation Xrotation Yrotation
                        End Site
                        {
                          OFFSET -0.0145 -0.018 0.0127
                        }
                      }
                    }
                  }
                  JOINT rMid1
                  {
                    OFFSET -5.6954 0.21 2.1184
                    CHANNELS 3 Zrotation Xrotation Yrotation
                    JOINT rMid2
                    {
                      OFFSET -3.9766 -1.54 2.3863
                      CHANNELS 3 Zrotation Xrotation Yrotation
                      JOINT rMid2_End
                      {
                        OFFSET -1.4042 -1.926 1.125
                        CHANNELS 3 Zrotation Xrotation Yrotation
                        End Site
                        {
                          OFFSET -0.014 -0.0193 0.0113
                        }
                      }
                    }
                  }
                }
                JOINT rCarpal2
                {
                  OFFSET -2.0956 0.66 -0.3894
                  CHANNELS 3 Zrotation Xrotation Yrotation
                  JOINT rRing1
                  {
                    OFFSET -5.0395 -0.09 2.4971
                    CHANNELS 3 Zrotation Xrotation Yrotation
                    JOINT rRing2
                    {
                      OFFSET -3.7921 -1.552 1.4806
                      CHANNELS 3 Zrotation Xrotation Yrotation
                      JOINT rRing2_End
                      {
                        OFFSET -1.4655 -1.808 0.9609
                        CHANNELS 3 Zrotation Xrotation Yrotation
                        End Site
                        {
                          OFFSET -0.0147 -0.0181 0.0096
                        }
                      }
                    }
                  }
                  JOINT rPinky1
                  {
                    OFFSET -4.9141 -1.269 0.3592
                    CHANNELS 3 Zrotation Xrotation Yrotation
                    JOINT rPinky2
                    {
                      OFFSET -3.1477 -1.685 0.8462
                      CHANNELS 3 Zrotation Xrotation Yrotation
                      JOINT rPinky2_End
                      {
                        OFFSET -0.8055 -1.585 0.7955
                        CHANNELS 3 Zrotation Xrotation Yrotation
                        End Site
                        {
                          OFFSET -0.0081 -0.0158 0.008
                        }
                      }
                    }
                  }
                }
              }
            }
          }
        }
      }
    }
  }
  JOINT lThigh
  {
    OFFSET 8.367 -8.2066 0.5982
    CHANNELS 3 Zrotation Xrotation Yrotation
    JOINT lShin
    {
      OFFSET 2.1923 -43.463 -0.4932
      CHANNELS 3 Zrotation Xrotation Yrotation
      JOINT lFoot
      {
        OFFSET 0.7333 -45.8593 -2.6451
        CHANNELS 3 Zrotation Xrotation Yrotation
        End Site
        {
          OFFSET 2.6618 -4.2699 12.3931
        }
      }
    }
  }
  JOINT rThigh
  {
    OFFSET -8.367 -8.2066 0.5982
    CHANNELS 3 Zrotation Xrotation Yrotation
    JOINT rShin
    {
      OFFSET -2.1923 -43.463 -0.4931
      CHANNELS 3 Zrotation Xrotation Yrotation
      JOINT rFoot
      {
        OFFSET -0.7333 -45.8593 -2.6451
        CHANNELS 3 Zrotation Xrotation Yrotation
        End Site
        {
          OFFSET -2.6618 -4.2699 12.3931
        }
      }
    }
  }
}
MOTION
Frames:	5
Frame Time:	0.0333333
0 91.7903 2.51682 0 0 -0 0 0 -0 0 0 -0 0 0 -0 0 0 -0 0 0 -0 0 0 -0 1.66051 0.0835086 5.75766 -0.0175111 0.895433 15.7816 7.95139e-016 -1.98785e-016 -0 5.46658e-016 -3.97569e-016 -0 5.96354e-016 0 -0 3.97569e-016 1.98785e-016 9.54166e-015 1.49089e-016 -3.97569e-016 -0 6.4605e-016 0 3.18055e-015 5.96354e-016 0 3.18055e-015 8.94531e-016 -1.98785e-016 6.36111e-015 6.4605e-016 0 3.18055e-015 5.96354e-016 0 3.18055e-015 8.94531e-016 -1.98785e-016 6.36111e-015 1.49089e-016 -3.97569e-016 -0 6.4605e-016 0 3.18055e-015 5.96354e-016 0 3.18055e-015 8.94531e-016 -1.98785e-016 6.36111e-015 6.4605e-016 0 3.18055e-015 5.96354e-016 0 3.18055e-015 8.94531e-016 -1.98785e-016 6.36111e-015 0 0 -0 -1.4496 0.0636048 -5.0245 -1.74811 1.20616 -16.8394 -1.19271e-015 1.98785e-016 -3.18055e-015 -3.97569e-016 1.98785e-016 -3.18055e-015 -2.98177e-016 1.98785e-016 -3.18055e-015 -2.98177e-016 3.97569e-016 -0 4.96962e-016 0 -6.36111e-015 -9.93923e-017 3.97569e-016 -0 -8.94531e-016 5.96354e-016 -0 -3.97569e-016 3.97569e-016 -0 -9.93923e-017 3.97569e-016 -0 -8.94531e-016 5.96354e-016 -0 -3.97569e-016 3.97569e-016 -0 4.96962e-016 0 -6.36111e-015 -9.93923e-017 3.97569e-016 -0 -8.94531e-016 5.96354e-016 -0 -3.97569e-016 3.97569e-016 -0 -9.93923e-017 3.97569e-016 -0 -8.94531e-016 5.96354e-016 -0 -3.97569e-016 3.97569e-016 -0 -4.66111 -0.998717 0.12318 0.00986924 1.54847 0.176523 4.65186 -0.572283 -0.254274 4.66111 -0.998765 -0.123176 -0.00986867 1.54869 -0.176537 -4.65186 -0.572453 0.25427 
-0.000109607 42.6529 -40.6515 -0 -50.6261 -0 -0.0353774 4.79547 -0.0617816 -0.0658926 9.59097 -0.12122 -0.0658926 9.59098 -0.12122 6.40746e-007 10.1569 -5.71367e-007 -1.66063e-009 5.10756 -6.34565e-008 0.317977 0.301765 4.86391 -41.7052 0.972242 22.7733 14.5813 12.1643 -28.3952 1.31583 13.7994 -0.926204 1.31129e-007 -8.17356e-007 -2.08504e-007 -3.27822e-007 2.04339e-006 5.21259e-007 1.31129e-007 -8.17356e-007 -2.08504e-007 1.98785e-015 0 -0 1.31129e-007 -8.17356e-007 -2.08504e-007 -3.27822e-007 2.04339e-006 5.21259e-007 1.31129e-007 -8.17356e-007 -2.08504e-007 1.31129e-007 -8.17356e-007 -2.08504e-007 -3.27822e-007 2.04339e-006 5.21259e-007 1.31129e-007 -8.17356e-007 -2.08504e-007 1.98785e-015 0 -0 1.31129e-007 -8.17356e-007 -2.08504e-007 -3.27822e-007 2.04339e-006 5.21259e-007 1.31129e-007 -8.17356e-007 -2.08504e-007 1.31129e-007 -8.17356e-007 -2.08504e-007 -3.27822e-007 2.04339e-006 5.21259e-007 1.31129e-007 -8.17356e-007 -2.08504e-007 -0.324357 0.303018 -4.86561 41.8932 0.892157 -22.0449 -16.0065 11.475 27.5956 -1.44924 13.7587 1.32781 3.22342e-006 -9.03487e-007 1.39597e-007 -1.23215e-007 -8.21256e-007 1.97948e-007 -6.16074e-008 -4.10628e-007 9.8974e-008 1.39149e-015 0 -3.18055e-015 3.22342e-006 -9.03487e-007 1.39597e-007 -1.23215e-007 -8.21256e-007 1.97948e-007 -6.16074e-008 -4.10628e-007 9.8974e-008 3.22342e-006 -9.03487e-007 1.39597e-007 -1.23215e-007 -8.21256e-007 1.97948e-007 -6.16074e-008 -4.10628e-007 9.8974e-008 1.39149e-015 0 -3.18055e-015 3.22342e-006 -9.03487e-007 1.39597e-007 -1.23215e-007 -8.21256e-007 1.97948e-007 -6.16074e-008 -4.10628e-007 9.8974e-008 3.22342e-006 -9.03487e-007 1.39597e-007 -1.23215e-007 -8.21256e-007 1.97948e-007 -6.16074e-008 -4.10628e-007 9.8974e-008 5.65208 0.079043 0.849162 -1.08336 3.21908 0.751193 8.83287 9.56969 -0.265759 -5.64847 0.0670083 -0.851702 1.07922 3.22363 -0.752596 -8.8351 9.57079 0.264161 
0.000250731 -0.555126 -70.763 -180 -89.9981 -180 -0.0627108 8.55893 -0.108405 -0.110716 17.118 -0.210807 -0.110716 17.118 -0.210807 5.26793e-007 17.9983 9.28909e-009 8.56416e-008 8.99857 2.48371e-008 0.603949 0.43296 8.60715 -75.7377 1.54103 36.0247 33.1688 3.81194 -60.9048 2.8192 24.3792 -2.64242 8.03549e-007 -1.45021e-006 -3.34397e-007 8.03549e-007 -1.45021e-006 -3.34397e-007 3.70397e-006 1.56887e-007 -8.03842e-007 -1.19271e-015 3.18055e-015 3.18055e-015 8.03549e-007 -1.45021e-006 -3.34397e-007 8.03549e-007 -1.45021e-006 -3.34397e-007 3.70397e-006 1.56887e-007 -8.03842e-007 8.03549e-007 -1.45021e-006 -3.34397e-007 8.03549e-007 -1.45021e-006 -3.34397e-007 3.70397e-006 1.56887e-007 -8.03842e-007 -1.19271e-015 3.18055e-015 3.18055e-015 8.03549e-007 -1.45021e-006 -3.34397e-007 8.03549e-007 -1.45021e-006 -3.34397e-007 3.70397e-006 1.56887e-007 -8.03842e-007 8.03549e-007 -1.45021e-006 -3.34397e-007 8.03549e-007 -1.45021e-006 -3.34397e-007 3.70397e-006 1.56887e-007 -8.03842e-007 -0.60742 0.43324 -8.61063 75.8927 1.42 -35.2984 -34 2.76002 59.9727 -3.12826 24.2761 3.39522 -3.97569e-015 4.37326e-015 6.36111e-015 -3.97569e-015 1.11319e-014 3.18055e-015 -7.28295e-031 1.31198e-014 3.18055e-015 -7.95139e-016 1.59028e-015 3.18055e-015 -3.97569e-015 4.37326e-015 3.18055e-015 -7.95139e-015 1.59028e-015 6.36111e-015 -2.38542e-015 2.38542e-015 1.27222e-014 -3.97569e-015 4.37326e-015 3.18055e-015 -7.95139e-015 1.59028e-015 6.36111e-015 -2.38542e-015 2.38542e-015 1.27222e-014 -7.95139e-016 1.59028e-015 3.18055e-015 -3.97569e-015 4.37326e-015 3.18055e-015 -7.95139e-015 1.59028e-015 6.36111e-015 -2.38542e-015 2.38542e-015 1.27222e-014 -3.97569e-015 4.37326e-015 3.18055e-015 -7.95139e-015 1.59028e-015 6.36111e-015 -2.38542e-015 2.38542e-015 1.27222e-014 13.6298 1.15582 1.46631 -1.91071 4.78317 1.23109 12.154 16.9008 -0.453102 -13.6331 1.15617 -1.46988 1.90752 4.78297 -1.23442 -12.1576 16.9006 0.450112 
0.00196225 -6.88758 -74.7132 -180 -84.373 -180 -0.0671548 9.22693 -0.114683 -0.117648 18.454 -0.222667 -0.117648 18.454 -0.222667 1.07496e-005 18.8933 -4.62444e-006 9.29897e-008 9.24004 -3.53304e-009 0.930558 0.0690282 8.98713 -80.7988 1.53412 37.9571 35.4366 1.29047 -64.9321 3.25479 25.6245 -3.02752 2.38542e-015 3.57812e-015 -3.18055e-015 1.59028e-015 7.15625e-015 -3.18055e-015 -1.59028e-015 1.59028e-015 -0 1.59028e-015 0 -3.18055e-015 -1.59028e-015 -3.97569e-016 -6.36111e-015 1.59028e-015 5.1684e-015 -9.54166e-015 6.62086e-031 5.96354e-015 -6.36111e-015 -1.59028e-015 -3.97569e-016 -6.36111e-015 1.59028e-015 5.1684e-015 -9.54166e-015 6.62086e-031 5.96354e-015 -6.36111e-015 1.59028e-015 0 -3.18055e-015 -1.59028e-015 -3.97569e-016 -6.36111e-015 1.59028e-015 5.1684e-015 -9.54166e-015 6.62086e-031 5.96354e-015 -6.36111e-015 -1.59028e-015 -3.97569e-016 -6.36111e-015 1.59028e-015 5.1684e-015 -9.54166e-015 6.62086e-031 5.96354e-015 -6.36111e-015 -0.90395 0.0617114 -8.99275 80.9354 1.41285 -37.2284 -36.1911 0.219709 63.9832 -3.58507 25.5085 3.82263 1.42631e-006 -8.38549e-007 -3.10284e-007 -1.08934e-006 -5.11748e-006 5.48344e-007 -8.38549e-007 -1.42631e-006 2.86209e-007 -1.59028e-015 2.38542e-015 3.18055e-015 1.42631e-006 -8.38549e-007 -3.10284e-007 -1.08934e-006 -5.11748e-006 5.48344e-007 -8.38549e-007 -1.42631e-006 2.86209e-007 1.42631e-006 -8.38549e-007 -3.10284e-007 -1.08934e-006 -5.11748e-006 5.48344e-007 -8.38549e-007 -1.42631e-006 2.86209e-007 -1.59028e-015 2.38542e-015 3.18055e-015 1.42631e-006 -8.38549e-007 -3.10284e-007 -1.08934e-006 -5.11748e-006 5.48344e-007 -8.38549e-007 -1.42631e-006 2.86209e-007 1.42631e-006 -8.38549e-007 -3.10284e-007 -1.08934e-006 -5.11748e-006 5.48344e-007 -8.38549e-007 -1.42631e-006 2.86209e-007 14.7274 1.35313 1.57053 -1.97647 4.9791 1.28375 12.6372 17.9912 -0.499925 -14.7689 1.4292 -1.57112 1.98903 4.96567 -1.29167 -12.6401 17.9734 0.494871 
0.00419955 -0.550613 -70.7636 -180 -89.9981 -180 -0.0641111 8.86337 -0.107376 -0.113245 17.7269 -0.208388 -0.113245 17.7268 -0.208388 8.33642e-006 17.472 -1.69515e-006 -1.48994e-008 8.2647 -8.81026e-008 1.26327 -0.461518 8.24783 -76.1727 1.35784 36.1152 33.1449 3.94051 -61.1227 3.20285 23.7859 -2.77432 -3.97569e-016 5.96354e-016 6.36111e-015 -3.97569e-016 -2.18663e-015 3.18055e-015 1.59028e-015 6.16232e-015 3.18055e-015 -1.98785e-015 -3.57812e-015 3.18055e-015 7.95139e-016 -3.77691e-015 2.22639e-014 5.1684e-015 1.98785e-015 1.27222e-014 2.38542e-015 -2.18663e-015 -0 7.95139e-016 -3.77691e-015 2.22639e-014 5.1684e-015 1.98785e-015 1.27222e-014 2.38542e-015 -2.18663e-015 -0 -1.98785e-015 -3.57812e-015 3.18055e-015 7.95139e-016 -3.77691e-015 2.22639e-014 5.1684e-015 1.98785e-015 1.27222e-014 2.38542e-015 -2.18663e-015 -0 7.95139e-016 -3.77691e-015 2.22639e-014 5.1684e-015 1.98785e-015 1.27222e-014 2.38542e-015 -2.18663e-015 -0 -1.19731 -0.478592 -8.25557 76.297 1.24913 -35.3828 -33.9703 2.87991 60.1799 -3.48932 23.6796 3.49898 -3.97569e-015 -3.97569e-016 3.18055e-015 2.38542e-015 7.95139e-016 3.18055e-015 7.15625e-015 -3.18055e-015 1.27222e-014 -5.56597e-015 1.19271e-015 6.36111e-015 -0 -4.77083e-015 -0 7.95139e-016 -4.77083e-015 -0 3.97569e-015 -2.78299e-015 3.18055e-015 -0 -4.77083e-015 -0 7.95139e-016 -4.77083e-015 -0 3.97569e-015 -2.78299e-015 3.18055e-015 -5.56597e-015 1.19271e-015 6.36111e-015 -0 -4.77083e-015 -0 7.95139e-016 -4.77083e-015 -0 3.97569e-015 -2.78299e-015 3.18055e-015 -0 -4.77083e-015 -0 7.95139e-016 -4.77083e-015 -0 3.97569e-015 -2.78299e-015 3.18055e-015 13.5336 1.05781 1.49065 -1.7929 4.88239 1.20127 12.1645 17.0507 -0.468965 -13.6238 1.2328 -1.48665 1.82595 4.84867 -1.2143 -12.1663 17.0119 0.462074 
